<svg width="41" height="41" viewBox="0 0 41 41" fill="none" xmlns="http://www.w3.org/2000/svg">
<path d="M6.84767 16.6328L9.01168 14.9016H9.22808C9.87729 14.9016 10.3101 14.4688 10.3101 13.8196C10.3101 13.3868 10.0937 13.1704 9.87729 12.954V8.40961H8.79528V12.954C8.36248 13.1704 8.14608 13.3868 8.14608 13.8196V14.036L5.98207 15.7672L6.84767 16.6328Z" fill="#C6F7FF"/>
<path d="M39.7406 28.3185V21.3936C39.7406 19.2296 38.875 18.364 38.875 18.364C38.875 18.364 36.711 15.5508 35.4126 13.8196C34.1142 12.0884 32.383 12.0884 32.383 12.0884H25.0254V11.0064C25.0254 9.49159 23.9434 8.40959 22.4285 8.40959H16.1529C14.6381 6.24558 12.0413 4.73077 9.22809 4.73077C4.46727 4.73077 0.788452 8.62599 0.788452 13.3868C0.788452 15.3344 1.43765 17.0656 2.51966 18.5804V28.1021C2.51966 29.6169 3.60166 30.6989 5.11647 30.6989H6.19848V30.9153C6.19848 33.5121 8.36249 35.6761 10.9593 35.6761C13.5561 35.6761 15.7201 33.5121 15.7201 30.9153C15.7201 30.6989 15.7201 30.6989 15.7201 30.6989H22.2121H22.4285C23.0777 30.6989 24.5926 30.6989 26.5402 30.6989V30.9153C26.5402 33.5121 28.7042 35.6761 31.301 35.6761C33.8978 35.6761 36.0618 33.5121 36.0618 30.9153C36.0618 30.6989 36.0618 30.6989 36.0618 30.6989C36.2782 30.6989 36.4946 30.6989 36.4946 30.6989C40.1734 30.9153 39.7406 28.3185 39.7406 28.3185ZM38.6586 20.7444C38.6586 20.7444 38.6586 20.9608 38.6586 21.3936H30.219C29.7862 21.3936 29.3534 20.9608 29.3534 20.528V17.0656C29.3534 16.6328 29.7862 16.2 30.219 16.2H35.8454C36.4946 16.8492 37.1438 17.7148 37.5766 18.364C38.6586 19.6624 38.6586 20.7444 38.6586 20.7444ZM9.22809 6.02918C13.3397 6.02918 16.8021 9.27519 16.8021 13.6032C16.8021 17.9312 13.3397 20.9608 9.22809 20.9608C5.11647 20.9608 1.87046 17.4984 1.87046 13.3868C1.87046 9.27519 5.11647 6.02918 9.22809 6.02918ZM10.7429 34.5941C8.79529 34.5941 7.28048 33.0793 7.28048 31.1317C7.28048 29.1841 8.79529 27.6693 10.7429 27.6693C12.6905 27.6693 14.2053 29.1841 14.2053 31.1317C14.2053 33.0793 12.6905 34.5941 10.7429 34.5941ZM15.0709 29.6169C14.4217 27.8857 12.6905 26.3709 10.7429 26.3709C8.79529 26.3709 7.06408 27.6693 6.41488 29.6169H4.90007C4.25087 29.6169 3.60166 28.9677 3.60166 28.3185V19.6624C5.11647 20.9608 7.06408 21.8264 9.22809 21.8264C13.9889 21.8264 17.6677 17.9312 17.6677 13.3868C17.6677 12.0884 17.2349 10.79 16.8021 9.708H22.4285C23.0777 9.708 23.7269 10.3572 23.7269 11.0064V28.3185C23.7269 28.9677 23.0777 29.6169 22.4285 29.6169H15.0709ZM31.0846 34.5941C29.137 34.5941 27.6222 33.0793 27.6222 31.1317C27.6222 29.1841 29.137 27.6693 31.0846 27.6693C33.0322 27.6693 34.547 29.1841 34.547 31.1317C34.547 33.0793 33.0322 34.5941 31.0846 34.5941ZM36.4946 29.8333H35.629C34.9798 27.8857 33.2486 26.5873 31.301 26.5873C29.137 26.5873 27.4058 27.8857 26.973 29.8333H24.809C25.2418 29.4005 25.4582 28.9677 25.4582 28.3185V12.954C25.4582 12.954 30.219 12.954 32.1666 12.954C34.1142 12.954 34.9798 14.2524 34.9798 14.2524C34.9798 14.2524 34.7634 14.6852 35.1962 15.118H30.219C29.137 15.118 28.4878 15.9836 28.4878 16.8492V20.3116C28.4878 21.3936 29.3534 22.0428 30.219 22.0428H38.875C38.875 23.7741 38.875 26.3709 38.875 27.6693C38.6586 30.0497 36.4946 29.8333 36.4946 29.8333Z" fill="#C6F7FF"/>
</svg>
