<svg width="41" height="41" viewBox="0 0 41 41" fill="none" xmlns="http://www.w3.org/2000/svg">
<path d="M12.5679 9.16711C12.5679 9.65294 13.5396 10.1388 14.9971 10.1388C16.4546 10.1388 17.4263 9.65294 17.4263 9.16711C17.4263 8.68127 16.4546 8.19543 14.9971 8.19543C13.7825 8.19543 12.5679 8.43835 12.5679 9.16711Z" fill="#C6F7FF"/>
<path d="M38.8031 18.1551C38.8031 15.7259 36.8597 13.7825 34.4306 13.7825H33.4589H12.0821C12.0821 13.7825 6.25207 14.0254 3.57998 9.41001C3.82289 6.00916 6.49499 3.57998 9.89584 3.57998H19.6126C23.2563 3.57998 25.9284 6.49499 25.9284 9.89584V11.1104H27.143V10.1388C27.143 5.76624 23.7422 2.36539 19.3696 2.36539H10.1388C5.76624 2.36539 2.36539 5.76624 2.36539 10.1388V13.2967V13.7825V21.5559C2.36539 25.9284 5.76624 29.3293 10.1388 29.3293H11.8392V28.1147H9.89584C6.25207 28.1147 3.57998 25.1997 3.57998 21.7988V13.7825V13.2967V11.5963C4.30873 12.5679 6.73791 14.9971 11.8392 14.9971C19.1267 14.9971 33.216 14.9971 33.216 14.9971H34.4306C36.131 14.9971 37.3456 16.2117 37.3456 17.9121V19.3696V19.8555C37.3456 21.5559 36.131 22.7705 34.4306 22.7705H34.1876H18.8838C16.4546 22.7705 14.5113 24.7138 14.5113 27.143V33.7018C14.5113 36.131 16.4546 38.0743 18.8838 38.0743H34.4306C36.8597 38.0743 38.8031 36.131 38.8031 33.7018V27.143C38.8031 27.143 38.8031 21.313 38.8031 19.6126C38.8031 19.6126 38.8031 19.6126 38.8031 19.3696V18.1551ZM37.3456 34.1876C37.3456 35.8881 36.131 37.1027 34.4306 37.1027H18.6409C16.9405 37.1027 15.7259 35.8881 15.7259 34.1876V27.143C15.7259 25.4426 16.9405 24.228 18.6409 24.228H23.2563V28.3576H24.4709V24.228H30.058H32.2443V28.3576H33.4589V24.228H34.4306C35.6451 24.228 36.8597 23.7422 37.5885 23.0134V34.1876H37.3456Z" fill="#C6F7FF"/>
</svg>
